<svg id="Layer_1" data-name="Layer 1" xmlns="http://www.w3.org/2000/svg" viewBox="0 0 512 512"><defs><style>.cls-1{fill:#17161e;}.cls-2{font-size:270px;fill:#06ffff;font-family:Barlow-ExtraBold, Barlow;font-weight:800;letter-spacing:0.07em;}</style></defs><rect class="cls-1" x="0.5" y="0.5" width="511" height="511" rx="49.5"/><path d="M462,1a49.05,49.05,0,0,1,49,49V462a49.05,49.05,0,0,1-49,49H50A49.05,49.05,0,0,1,1,462V50A49.05,49.05,0,0,1,50,1H462m0-1H50A50,50,0,0,0,0,50V462a50,50,0,0,0,50,50H462a50,50,0,0,0,50-50V50A50,50,0,0,0,462,0Z"/><text class="cls-2" transform="translate(87.64 340.37)">EC</text></svg>