<svg id="Layer_1" data-name="Layer 1" xmlns="http://www.w3.org/2000/svg" xmlns:xlink="http://www.w3.org/1999/xlink" viewBox="0 0 232 232"><defs><style>.cls-1{fill:url(#linear-gradient);}.cls-2{fill:url(#linear-gradient-2);}</style><linearGradient id="linear-gradient" x1="33.98" y1="33.98" x2="198.02" y2="198.02" gradientUnits="userSpaceOnUse"><stop offset="0" stop-color="#06ffff"/><stop offset="0.1" stop-color="#27d8ff"/><stop offset="0.22" stop-color="#47b2ff"/><stop offset="0.33" stop-color="#5d97ff"/><stop offset="0.43" stop-color="#6b87ff"/><stop offset="0.5" stop-color="#7081ff"/><stop offset="0.62" stop-color="#767fff"/><stop offset="0.77" stop-color="#867aff"/><stop offset="0.94" stop-color="#a171ff"/><stop offset="1" stop-color="#ac6dff"/></linearGradient><linearGradient id="linear-gradient-2" x1="77.11" y1="57.88" x2="154.89" y2="135.66" xlink:href="#linear-gradient"/></defs><path class="cls-1" d="M116,0h0A116,116,0,0,0,0,116H0A116,116,0,0,0,116,232h0A116,116,0,0,0,232,116h0A116,116,0,0,0,116,0ZM216,116A100,100,0,0,1,116,216h0A100,100,0,0,1,16,116h0A100,100,0,0,1,116,16h0A100,100,0,0,1,216,116Z"/><path class="cls-2" d="M176.81,91.11,116,151.92,55.19,91.11a8,8,0,1,0-11.31,11.31l66.46,66.47a8,8,0,0,0,11.32,0l66.46-66.47a8,8,0,0,0-11.31-11.31Z"/></svg>