<?xml version="1.0" encoding="utf-8"?>
<!-- Generator: Adobe Illustrator 26.0.1, SVG Export Plug-In . SVG Version: 6.00 Build 0)  -->
<svg version="1.1" id="Layer_1" xmlns="http://www.w3.org/2000/svg" xmlns:xlink="http://www.w3.org/1999/xlink" x="0px" y="0px"
	 viewBox="0 0 800 800" style="enable-background:new 0 0 800 800;" xml:space="preserve">
<style type="text/css">
	.st0{fill:#FFFFFF;}
</style>
<path class="st0" d="M400,0C179.1,0,0,179.1,0,400s179.1,400,400,400s400-179.1,400-400S620.9,0,400,0z M400,40.7
	c198.4,0,359.3,160.9,359.3,359.3S598.4,759.3,400,759.3S40.7,598.4,40.7,400S201.6,40.7,400,40.7z"/>
<path class="st0" d="M404.5,115.3c157.3,0,284.7,127.5,284.7,284.7c0,157.3-127.5,284.7-284.7,284.7
	c-157.3,0-284.7-127.5-284.7-284.7c0-38.4,7.6-75.1,21.4-108.5c20.2,27.4,52.7,45.3,89.3,45.3c61.2,0,110.7-49.6,110.7-110.7
	c0-36.7-17.8-69.2-45.3-89.3C329.4,122.9,366.1,115.3,404.5,115.3z"/>
</svg>
