<?xml version="1.0" encoding="utf-8"?>
<!-- Generator: Adobe Illustrator 26.0.1, SVG Export Plug-In . SVG Version: 6.00 Build 0)  -->
<svg version="1.1" id="Layer_1" xmlns="http://www.w3.org/2000/svg" xmlns:xlink="http://www.w3.org/1999/xlink" x="0px" y="0px"
	 viewBox="0 0 348.6 360.1" style="enable-background:new 0 0 348.6 360.1;" xml:space="preserve">
<style type="text/css">
	.st0{fill:#94A3B8;}
</style>
<path class="st0" d="M342.6,225l-22.1-12.8c4.8-21.5,4.8-43.7,0-65.2l21.7-12.5c5.7-3.3,7.7-10.6,4.4-16.3L313.5,61
	c-3.3-5.7-10.6-7.6-16.3-4.4l-21.6,12.5c-16.1-14.8-35.3-25.9-56.2-32.5V11.9c0-6.6-5.3-11.9-11.9-11.9c0,0,0,0,0,0h-66.2
	c-6.6,0-11.9,5.3-11.9,11.9v24.5c-10.5,3.3-20.7,7.8-30.2,13.3l0,0c-9.6,5.5-18.5,12.1-26.7,19.6L51.3,57.1
	c-5.7-3.3-13-1.3-16.3,4.4c0,0,0,0,0,0L1.9,118.7c-3.3,5.7-1.3,13,4.4,16.3l21.4,12.3c-4.8,21.5-4.7,43.7,0.1,65.2L6,225.1
	c-5.7,3.3-7.7,10.6-4.4,16.3l33.1,57.3c3.3,5.7,10.6,7.7,16.3,4.4l21.9-12.7c16.2,14.8,35.5,25.9,56.4,32.4v25.4
	c0,6.6,5.3,11.9,11.9,11.9h66.1c6.6,0,11.9-5.3,11.9-11.9l0,0v-25.5c10.4-3.3,20.4-7.7,29.8-13.1l0,0c9.5-5.5,18.3-12,26.4-19.4
	l22,12.7c5.7,3.3,13,1.3,16.3-4.4c0,0,0,0,0,0l33.1-57.3C350.2,235.6,348.3,228.3,342.6,225z M219.1,257.6L219.1,257.6
	c-43,24.8-98.1,10.1-122.9-32.9l0,0c-24.8-43-10.1-98.1,32.9-122.9l0,0c43-24.9,98.1-10.1,122.9,32.9l0,0
	C277,177.7,262.2,232.7,219.1,257.6C219.2,257.6,219.2,257.6,219.1,257.6z"/>
</svg>
